<svg id="Layer_1" xmlns="http://www.w3.org/2000/svg" viewBox="0 0 1200 350"><defs><style>.cls-1{fill:#212121;stroke-width:0}</style></defs><path class="cls-1" d="M187.42 92.6c8.83 10.32 13.25 23.84 13.25 40.57s-4.28 29.56-12.83 39.6c-8.55 10.04-19.8 15.06-33.74 15.06h-26.21c-.75 0-1.12.37-1.12 1.12v80.87c0 1.86-.93 2.79-2.79 2.79h-21.19c-1.86 0-2.79-.93-2.79-2.79V79.91c0-1.86.93-2.79 2.79-2.79h49.92c14.31 0 25.89 5.16 34.72 15.48Zm-20.49 64.97c4.65-5.86 6.97-13.8 6.97-23.84s-2.33-18.36-6.97-24.4c-4.65-6.04-10.78-9.06-18.4-9.06h-20.64c-.75 0-1.12.37-1.12 1.12v63.86c0 .75.37 1.12 1.12 1.12h20.64c7.62 0 13.76-2.93 18.4-8.78ZM250.59 270.09 213.5 80.46v-.56c0-1.67.84-2.51 2.51-2.51h22.03c1.86 0 2.88.84 3.07 2.51l22.59 130.79c.18.37.37.56.56.56s.37-.18.56-.56L284.9 79.9c.18-1.67 1.12-2.51 2.79-2.51h18.68c1.67 0 2.6.84 2.79 2.51l21.47 130.79c.18.37.37.56.56.56s.37-.18.56-.56L352.39 79.9c.37-1.67 1.3-2.51 2.79-2.51h21.75c.93 0 1.63.28 2.09.84.46.56.6 1.3.42 2.23L344.3 270.09c-.19 1.67-1.21 2.51-3.07 2.51h-19.8c-1.49 0-2.42-.84-2.79-2.51l-21.19-131.9c-.19-.37-.42-.56-.7-.56s-.42.19-.42.56l-20.08 131.9c-.19 1.67-1.12 2.51-2.79 2.51h-19.8c-1.67 0-2.7-.84-3.07-2.51ZM476.19 270.37l-25.66-83.1c-.19-.56-.56-.84-1.12-.84h-19.52c-.75 0-1.12.37-1.12 1.12v82.26c0 1.86-.93 2.79-2.79 2.79h-21.19c-1.86 0-2.79-.93-2.79-2.79V80.19c0-1.86.93-2.79 2.79-2.79h49.92c9.48 0 17.85 2.33 25.1 6.97 7.25 4.65 12.87 11.2 16.87 19.66 4 8.46 6 18.08 6 28.86 0 11.71-2.42 21.89-7.25 30.54-4.84 8.64-11.43 14.92-19.8 18.82-.56.56-.74 1.12-.56 1.67l28.44 85.61.28 1.12c0 1.3-.84 1.95-2.51 1.95h-21.75c-1.67 0-2.79-.74-3.35-2.23Zm-47.41-168.71v62.47c0 .75.37 1.12 1.12 1.12h20.64c7.62 0 13.76-2.93 18.4-8.78 4.64-5.86 6.97-13.62 6.97-23.28s-2.33-17.99-6.97-23.84c-4.65-5.86-10.78-8.78-18.4-8.78H429.9c-.75 0-1.12.37-1.12 1.12ZM608.09 77.4h9.2c1.86 0 2.79.93 2.79 2.79v189.63c0 1.86-.93 2.79-2.79 2.79h-9.2c-1.86 0-2.79-.93-2.79-2.79v-87.28c0-.74-.37-1.12-1.12-1.12h-55.21c-.75 0-1.12.37-1.12 1.12v87.28c0 1.86-.93 2.79-2.79 2.79h-9.2c-1.86 0-2.79-.93-2.79-2.79V80.19c0-1.86.93-2.79 2.79-2.79h9.2c1.86 0 2.79.93 2.79 2.79v87c0 .75.37 1.12 1.12 1.12h55.21c.74 0 1.12-.37 1.12-1.12v-87c0-1.86.93-2.79 2.79-2.79ZM667.07 261.87c-8.46-8.64-12.69-19.94-12.69-33.88V122.3c0-14.13 4.18-25.52 12.55-34.16 8.37-8.64 19.42-12.97 33.18-12.97s24.91 4.32 33.46 12.97c8.55 8.64 12.83 20.03 12.83 34.16v105.69c0 13.94-4.28 25.24-12.83 33.88-8.55 8.64-19.71 12.97-33.46 12.97s-24.59-4.32-33.05-12.97Zm55.77-9.35c5.86-6.14 8.78-14.13 8.78-23.98v-106.8c0-9.85-2.93-17.89-8.78-24.12-5.86-6.23-13.43-9.34-22.73-9.34s-16.55 3.12-22.31 9.34c-5.76 6.23-8.64 14.27-8.64 24.12v106.8c0 9.86 2.88 17.85 8.64 23.98 5.76 6.13 13.2 9.2 22.31 9.2s16.87-3.07 22.73-9.2ZM791.3 260.47c-8.37-9.57-12.55-22.35-12.55-38.34V80.19c0-1.86.93-2.79 2.79-2.79h9.2c1.86 0 2.79.93 2.79 2.79V223.8c0 11.34 2.83 20.5 8.5 27.47 5.67 6.97 13.15 10.46 22.45 10.46s16.87-3.49 22.73-10.46c5.86-6.97 8.78-16.13 8.78-27.47V80.19c0-1.86.93-2.79 2.79-2.79h9.2c1.86 0 2.79.93 2.79 2.79v141.94c0 15.8-4.28 28.54-12.83 38.2-8.55 9.67-19.71 14.5-33.46 14.5s-24.82-4.78-33.18-14.36ZM910.93 261.31c-8.18-9.02-12.27-20.78-12.27-35.28v-5.86c0-1.86.93-2.79 2.79-2.79h8.92c1.86 0 2.79.93 2.79 2.79v5.3c0 10.97 2.74 19.8 8.23 26.49 5.48 6.69 12.59 10.04 21.33 10.04s15.99-3.25 21.75-9.76c5.76-6.5 8.64-14.96 8.64-25.38 0-6.88-1.35-12.83-4.04-17.85-2.7-5.02-6.14-9.34-10.32-12.97-4.18-3.63-11.02-9.06-20.5-16.31-9.67-7.25-17.06-13.25-22.17-17.99-5.12-4.74-9.34-10.41-12.69-17.01-3.35-6.6-5.02-14.45-5.02-23.56 0-14.31 4-25.56 11.99-33.74 7.99-8.18 18.31-12.27 30.95-12.27 13.57 0 24.44 4.56 32.63 13.66 8.18 9.11 12.27 21.1 12.27 35.97v6.97c0 1.86-.93 2.79-2.79 2.79h-9.2c-1.86 0-2.79-.93-2.79-2.79v-6.97c0-10.97-2.74-19.84-8.23-26.63-5.49-6.78-12.78-10.18-21.89-10.18-8.18 0-14.97 2.93-20.36 8.78-5.39 5.86-8.09 14.08-8.09 24.68 0 6.32 1.16 11.81 3.49 16.45 2.32 4.65 5.67 9.02 10.04 13.11 4.37 4.09 11.02 9.48 19.94 16.17 10.97 8.18 19.15 14.78 24.54 19.8 5.39 5.02 9.53 10.5 12.41 16.45 2.88 5.95 4.32 13.11 4.32 21.47 0 15.25-4.14 27.38-12.41 36.39-8.27 9.02-19.01 13.52-32.21 13.52s-23.89-4.5-32.07-13.52ZM1097.21 90.5h-66.09c-.75 0-1.12.37-1.12 1.12v75.57c0 .75.37 1.12 1.12 1.12h42.39c1.86 0 2.79.93 2.79 2.79v7.53c0 1.86-.93 2.79-2.79 2.79h-42.39c-.75 0-1.12.37-1.12 1.12v75.85c0 .74.37 1.12 1.12 1.12h66.09c1.86 0 2.79.93 2.79 2.79v7.53c0 1.86-.93 2.79-2.79 2.79h-79.2c-1.86 0-2.79-.93-2.79-2.79V80.19c0-1.86.93-2.79 2.79-2.79h79.2c1.86 0 2.79.93 2.79 2.79v7.53c0 1.86-.93 2.79-2.79 2.79Z"/></svg>